<svg width="1704" height="233" viewBox="0 0 1704 233" fill="none" xmlns="http://www.w3.org/2000/svg">
<path fill-rule="evenodd" clip-rule="evenodd" d="M99.1555 0.924788C98.9191 1.15774 80.1804 10.8864 57.5143 22.544C34.8482 34.2021 14.917 44.5506 13.2229 45.5414C9.49122 47.7224 8.3441 49.5398 9.2752 51.7934C9.59492 52.5672 10.3897 53.5776 11.0418 54.039C13.2065 55.5702 100.501 100.545 102.461 101.139C104.039 101.616 104.746 101.614 106.377 101.121C107.471 100.791 123.826 92.5761 142.719 82.8666C161.613 73.157 181.857 62.76 187.704 59.7625C196.433 55.2878 198.526 54.0294 199.389 52.7339C201.195 50.0256 200.005 47.9032 195.186 45.2367C193.692 44.4098 173.924 34.193 151.258 22.5327C128.592 10.8723 109.853 1.14503 109.617 0.916614C108.009 0.0563242 103.254 -0.624852 99.1555 0.924788ZM1.47907 61.3132C3.57628e-07 62.6383 0 62.6383 0 120.233C0 177.827 -1.19209e-07 177.827 1.21414 180.424C1.88212 181.853 3.33402 183.905 4.44083 184.984C6.94021 187.419 8.4383 188.225 53.4385 211.338C73.6138 221.701 90.9908 230.814 92.0541 231.59C93.6455 232.751 94.4158 233 96.4134 233C98.8404 233 98.8403 233 99.8018 230.759C100.763 228.518 100.763 228.518 100.763 170.875C100.763 139.171 100.631 112.569 100.47 111.76C100.309 110.951 99.5341 109.648 98.7493 108.865C97.8418 107.96 81.5852 99.3104 54.0956 85.1062C6.79439 60.6657 5.44438 59.9891 3.96984 59.9886C3.41327 59.9881 2.29242 60.5844 1.47907 61.3132ZM188.727 67.8214C123.538 101.213 111.35 107.569 110.038 108.865C109.245 109.648 108.464 110.951 108.303 111.76C108.141 112.569 108.009 139.171 108.009 170.875C108.009 228.518 108.009 228.518 108.971 230.759C109.932 233 109.932 233 112.538 233C114.329 233 115.325 232.782 115.721 232.303C116.533 231.321 117.326 230.903 161.221 208.305C182.891 197.149 201.554 187.334 202.695 186.494C203.836 185.655 205.42 183.984 206.215 182.78C209.146 178.344 208.999 181.654 208.999 120.051C208.999 59.7311 209.091 62.161 206.759 60.91C204.751 59.8319 203.062 60.479 188.727 67.8214Z" fill="white"/>
<path d="M448.101 44.06V63.288H400.867V182H378.504V63.288H331.27V44.06H448.101Z" fill="white"/>
<path d="M457.664 182V77.5H476.683L478.773 96.31C481.56 89.4827 485.67 84.3273 491.104 80.844C496.678 77.2213 503.505 75.41 511.586 75.41C513.676 75.41 515.766 75.619 517.856 76.037C519.946 76.3157 521.688 76.8033 523.081 77.5L519.946 97.146C518.414 96.5887 516.672 96.1707 514.721 95.892C512.91 95.474 510.402 95.265 507.197 95.265C502.878 95.265 498.628 96.4493 494.448 98.818C490.268 101.047 486.785 104.461 483.998 109.059C481.351 113.657 480.027 119.509 480.027 126.615V182H457.664Z" fill="white"/>
<path d="M602.359 114.911C602.359 107.944 600.409 102.58 596.507 98.818C592.745 94.9167 587.52 92.966 580.832 92.966C574.562 92.966 569.198 94.429 564.739 97.355C560.281 100.281 557.006 105.018 554.916 111.567L536.106 103.625C538.754 95.1257 543.909 88.2983 551.572 83.143C559.375 77.9877 569.407 75.41 581.668 75.41C590.028 75.41 597.413 76.8033 603.822 79.59C610.232 82.2373 615.248 86.278 618.87 91.712C622.632 97.146 624.513 104.113 624.513 112.612V159.219C624.513 164.374 627.091 166.952 632.246 166.952C634.754 166.952 637.193 166.604 639.561 165.907L638.307 181.373C635.103 182.906 631.062 183.672 626.185 183.672C621.727 183.672 617.686 182.906 614.063 181.373C610.58 179.701 607.793 177.263 605.703 174.058C603.753 170.714 602.777 166.604 602.777 161.727V160.264L607.375 160.055C606.121 165.489 603.544 170.017 599.642 173.64C595.741 177.123 591.213 179.771 586.057 181.582C580.902 183.254 575.677 184.09 570.382 184.09C563.834 184.09 557.912 183.045 552.617 180.955C547.462 178.865 543.352 175.73 540.286 171.55C537.36 167.231 535.897 161.936 535.897 155.666C535.897 147.863 538.405 141.454 543.421 136.438C548.577 131.422 555.822 128.008 565.157 126.197L605.703 118.255L605.494 133.93L576.025 139.991C570.173 141.106 565.784 142.708 562.858 144.798C559.932 146.888 558.469 149.953 558.469 153.994C558.469 157.895 559.932 161.03 562.858 163.399C565.924 165.628 569.964 166.743 574.98 166.743C578.464 166.743 581.808 166.325 585.012 165.489C588.356 164.653 591.352 163.329 593.999 161.518C596.647 159.567 598.667 157.129 600.06 154.203C601.593 151.138 602.359 147.515 602.359 143.335V114.911Z" fill="white"/>
<path d="M661.154 182V77.5H681.009L682.472 104.67L679.546 101.744C681.496 95.7527 684.283 90.8063 687.906 86.905C691.668 82.8643 696.057 79.9383 701.073 78.127C706.228 76.3157 711.662 75.41 717.375 75.41C724.759 75.41 731.378 76.873 737.23 79.799C743.221 82.5857 747.958 86.8353 751.442 92.548C754.925 98.2607 756.667 105.506 756.667 114.284V182H734.304V121.181C734.304 110.87 732.144 103.764 727.825 99.863C723.645 95.8223 718.35 93.802 711.941 93.802C707.343 93.802 702.884 94.9167 698.565 97.146C694.245 99.236 690.623 102.65 687.697 107.387C684.91 112.124 683.517 118.464 683.517 126.406V182H661.154Z" fill="white"/>
<path d="M830.264 184.09C819.814 184.09 810.27 182.07 801.631 178.029C792.992 173.988 786.165 168.276 781.149 160.891L796.615 147.515C799.68 153.228 804.069 157.826 809.782 161.309C815.634 164.653 822.601 166.325 830.682 166.325C837.091 166.325 842.177 165.21 845.939 162.981C849.701 160.752 851.582 157.617 851.582 153.576C851.582 150.929 850.676 148.63 848.865 146.679C847.193 144.589 843.919 142.987 839.042 141.872L817.097 137.274C805.95 135.045 798.008 131.492 793.271 126.615C788.534 121.599 786.165 115.259 786.165 107.596C786.165 101.883 787.837 96.5887 791.181 91.712C794.525 86.8353 799.402 82.934 805.811 80.008C812.36 76.9427 820.162 75.41 829.219 75.41C839.669 75.41 848.586 77.291 855.971 81.053C863.356 84.6757 868.999 89.9007 872.9 96.728L857.434 109.686C854.787 104.113 850.885 100.002 845.73 97.355C840.575 94.5683 835.21 93.175 829.637 93.175C825.178 93.175 821.347 93.7323 818.142 94.847C814.937 95.9617 812.499 97.4943 810.827 99.445C809.155 101.396 808.319 103.695 808.319 106.342C808.319 109.129 809.364 111.567 811.454 113.657C813.544 115.747 817.306 117.349 822.74 118.464L846.566 123.48C856.598 125.431 863.634 128.775 867.675 133.512C871.855 138.11 873.945 143.753 873.945 150.441C873.945 157.129 872.203 163.051 868.72 168.206C865.237 173.222 860.221 177.123 853.672 179.91C847.123 182.697 839.321 184.09 830.264 184.09Z" fill="white"/>
<path d="M961.578 114.911C961.578 107.944 959.627 102.58 955.726 98.818C951.964 94.9167 946.739 92.966 940.051 92.966C933.781 92.966 928.417 94.429 923.958 97.355C919.499 100.281 916.225 105.018 914.135 111.567L895.325 103.625C897.972 95.1257 903.128 88.2983 910.791 83.143C918.594 77.9877 928.626 75.41 940.887 75.41C949.247 75.41 956.632 76.8033 963.041 79.59C969.45 82.2373 974.466 86.278 978.089 91.712C981.851 97.146 983.732 104.113 983.732 112.612V159.219C983.732 164.374 986.31 166.952 991.465 166.952C993.973 166.952 996.411 166.604 998.78 165.907L997.526 181.373C994.321 182.906 990.281 183.672 985.404 183.672C980.945 183.672 976.905 182.906 973.282 181.373C969.799 179.701 967.012 177.263 964.922 174.058C962.971 170.714 961.996 166.604 961.996 161.727V160.264L966.594 160.055C965.34 165.489 962.762 170.017 958.861 173.64C954.96 177.123 950.431 179.771 945.276 181.582C940.121 183.254 934.896 184.09 929.601 184.09C923.052 184.09 917.131 183.045 911.836 180.955C906.681 178.865 902.57 175.73 899.505 171.55C896.579 167.231 895.116 161.936 895.116 155.666C895.116 147.863 897.624 141.454 902.64 136.438C907.795 131.422 915.041 128.008 924.376 126.197L964.922 118.255L964.713 133.93L935.244 139.991C929.392 141.106 925.003 142.708 922.077 144.798C919.151 146.888 917.688 149.953 917.688 153.994C917.688 157.895 919.151 161.03 922.077 163.399C925.142 165.628 929.183 166.743 934.199 166.743C937.682 166.743 941.026 166.325 944.231 165.489C947.575 164.653 950.571 163.329 953.218 161.518C955.865 159.567 957.886 157.129 959.279 154.203C960.812 151.138 961.578 147.515 961.578 143.335V114.911Z" fill="white"/>
<path d="M1065.31 75.41C1073.67 75.41 1080.78 76.664 1086.63 79.172C1092.62 81.5407 1097.64 84.9543 1101.68 89.413C1105.72 93.8717 1108.78 98.9573 1110.87 104.67L1089.77 113.03C1087.95 106.621 1085.03 101.744 1080.99 98.4C1077.09 94.9167 1071.93 93.175 1065.52 93.175C1059.25 93.175 1053.89 94.638 1049.43 97.564C1044.97 100.351 1041.56 104.461 1039.19 109.895C1036.96 115.329 1035.84 122.017 1035.84 129.959C1035.84 137.762 1037.03 144.38 1039.4 149.814C1041.76 155.248 1045.18 159.358 1049.64 162.145C1054.1 164.932 1059.39 166.325 1065.52 166.325C1070.26 166.325 1074.37 165.559 1077.85 164.026C1081.34 162.354 1084.19 160.055 1086.42 157.129C1088.79 154.064 1090.39 150.371 1091.23 146.052L1111.5 152.949C1109.55 159.219 1106.49 164.723 1102.31 169.46C1098.26 174.058 1093.18 177.681 1087.05 180.328C1080.92 182.836 1073.88 184.09 1065.94 184.09C1055.63 184.09 1046.5 181.93 1038.56 177.611C1030.62 173.292 1024.42 167.091 1019.96 159.01C1015.64 150.789 1013.48 141.036 1013.48 129.75C1013.48 118.464 1015.64 108.78 1019.96 100.699C1024.42 92.4783 1030.55 86.2083 1038.35 81.889C1046.29 77.5697 1055.28 75.41 1065.31 75.41Z" fill="white"/>
<path d="M1168.04 46.777V150.65C1168.04 155.805 1169.36 159.567 1172.01 161.936C1174.8 164.305 1178.49 165.489 1183.09 165.489C1186.85 165.489 1190.13 164.932 1192.91 163.817C1195.7 162.563 1198.28 160.891 1200.64 158.801L1205.66 175.103C1202.46 177.89 1198.49 180.119 1193.75 181.791C1189.15 183.324 1183.99 184.09 1178.28 184.09C1172.29 184.09 1166.79 183.115 1161.77 181.164C1156.75 179.213 1152.85 176.078 1150.07 171.759C1147.28 167.3 1145.82 161.518 1145.68 154.412V53.047L1168.04 46.777ZM1203.99 77.5V95.056H1125.61V77.5H1203.99Z" fill="white"/>
<path d="M1237.39 59.944C1232.52 59.944 1228.75 58.7597 1226.11 56.391C1223.6 53.883 1222.34 50.3997 1222.34 45.941C1222.34 41.4823 1223.6 38.0687 1226.11 35.7C1228.75 33.3313 1232.52 32.147 1237.39 32.147C1242.13 32.147 1245.75 33.3313 1248.26 35.7C1250.91 38.0687 1252.23 41.4823 1252.23 45.941C1252.23 50.3997 1250.91 53.883 1248.26 56.391C1245.75 58.7597 1242.13 59.944 1237.39 59.944ZM1248.47 77.5V182H1226.11V77.5H1248.47Z" fill="white"/>
<path d="M1328.81 75.41C1338.98 75.41 1347.97 77.5697 1355.77 81.889C1363.58 86.2083 1369.64 92.4783 1373.96 100.699C1378.41 108.78 1380.64 118.464 1380.64 129.75C1380.64 141.036 1378.41 150.789 1373.96 159.01C1369.64 167.091 1363.58 173.292 1355.77 177.611C1347.97 181.93 1338.98 184.09 1328.81 184.09C1318.64 184.09 1309.65 181.93 1301.85 177.611C1294.05 173.292 1287.92 167.091 1283.46 159.01C1279 150.789 1276.77 141.036 1276.77 129.75C1276.77 118.464 1279 108.78 1283.46 100.699C1287.92 92.4783 1294.05 86.2083 1301.85 81.889C1309.65 77.5697 1318.64 75.41 1328.81 75.41ZM1328.81 92.966C1322.54 92.966 1317.18 94.429 1312.72 97.355C1308.4 100.142 1305.06 104.252 1302.69 109.686C1300.32 115.12 1299.13 121.808 1299.13 129.75C1299.13 137.553 1300.32 144.241 1302.69 149.814C1305.06 155.248 1308.4 159.428 1312.72 162.354C1317.18 165.141 1322.54 166.534 1328.81 166.534C1335.08 166.534 1340.38 165.141 1344.7 162.354C1349.02 159.428 1352.36 155.248 1354.73 149.814C1357.1 144.241 1358.28 137.553 1358.28 129.75C1358.28 121.808 1357.1 115.12 1354.73 109.686C1352.36 104.252 1349.02 100.142 1344.7 97.355C1340.38 94.429 1335.08 92.966 1328.81 92.966Z" fill="white"/>
<path d="M1408.78 182V77.5H1428.63L1430.1 104.67L1427.17 101.744C1429.12 95.7527 1431.91 90.8063 1435.53 86.905C1439.29 82.8643 1443.68 79.9383 1448.7 78.127C1453.85 76.3157 1459.29 75.41 1465 75.41C1472.38 75.41 1479 76.873 1484.85 79.799C1490.84 82.5857 1495.58 86.8353 1499.07 92.548C1502.55 98.2607 1504.29 105.506 1504.29 114.284V182H1481.93V121.181C1481.93 110.87 1479.77 103.764 1475.45 99.863C1471.27 95.8223 1465.97 93.802 1459.56 93.802C1454.97 93.802 1450.51 94.9167 1446.19 97.146C1441.87 99.236 1438.25 102.65 1435.32 107.387C1432.53 112.124 1431.14 118.464 1431.14 126.406V182H1408.78Z" fill="white"/>
<path d="M1598.58 114.911C1598.58 107.944 1596.63 102.58 1592.73 98.818C1588.97 94.9167 1583.74 92.966 1577.05 92.966C1570.78 92.966 1565.42 94.429 1560.96 97.355C1556.5 100.281 1553.23 105.018 1551.14 111.567L1532.33 103.625C1534.97 95.1257 1540.13 88.2983 1547.79 83.143C1555.59 77.9877 1565.63 75.41 1577.89 75.41C1586.25 75.41 1593.63 76.8033 1600.04 79.59C1606.45 82.2373 1611.47 86.278 1615.09 91.712C1618.85 97.146 1620.73 104.113 1620.73 112.612V159.219C1620.73 164.374 1623.31 166.952 1628.47 166.952C1630.97 166.952 1633.41 166.604 1635.78 165.907L1634.53 181.373C1631.32 182.906 1627.28 183.672 1622.41 183.672C1617.95 183.672 1613.91 182.906 1610.28 181.373C1606.8 179.701 1604.01 177.263 1601.92 174.058C1599.97 170.714 1599 166.604 1599 161.727V160.264L1603.6 160.055C1602.34 165.489 1599.76 170.017 1595.86 173.64C1591.96 177.123 1587.43 179.771 1582.28 181.582C1577.12 183.254 1571.9 184.09 1566.6 184.09C1560.05 184.09 1554.13 183.045 1548.84 180.955C1543.68 178.865 1539.57 175.73 1536.51 171.55C1533.58 167.231 1532.12 161.936 1532.12 155.666C1532.12 147.863 1534.63 141.454 1539.64 136.438C1544.8 131.422 1552.04 128.008 1561.38 126.197L1601.92 118.255L1601.71 133.93L1572.24 139.991C1566.39 141.106 1562 142.708 1559.08 144.798C1556.15 146.888 1554.69 149.953 1554.69 153.994C1554.69 157.895 1556.15 161.03 1559.08 163.399C1562.14 165.628 1566.18 166.743 1571.2 166.743C1574.68 166.743 1578.03 166.325 1581.23 165.489C1584.58 164.653 1587.57 163.329 1590.22 161.518C1592.87 159.567 1594.89 157.129 1596.28 154.203C1597.81 151.138 1598.58 147.515 1598.58 143.335V114.911Z" fill="white"/>
<path d="M1679.11 30.475V152.74C1679.11 157.895 1680.02 161.448 1681.83 163.399C1683.64 165.35 1686.63 166.325 1690.81 166.325C1693.32 166.325 1695.41 166.186 1697.08 165.907C1698.89 165.489 1701.12 164.792 1703.77 163.817L1701.26 180.537C1698.89 181.652 1696.18 182.488 1693.11 183.045C1690.05 183.742 1686.98 184.09 1683.92 184.09C1674.58 184.09 1667.68 181.721 1663.23 176.984C1658.91 172.107 1656.75 164.653 1656.75 154.621V30.475H1679.11Z" fill="white"/>
</svg>
