<svg width="1191" height="261" viewBox="0 0 1191 261" fill="none" xmlns="http://www.w3.org/2000/svg">
<g clip-path="url(#clip0_135_19)">
<path fill-rule="evenodd" clip-rule="evenodd" d="M71.1643 47.6628C70.9946 47.8298 57.5457 54.8027 41.2782 63.1581C25.0107 71.514 10.706 78.9311 9.49009 79.6413C6.81188 81.2045 5.98859 82.507 6.65684 84.1223C6.88631 84.6769 7.45673 85.4011 7.92476 85.7318C9.47839 86.8293 72.1302 119.065 73.5369 119.49C74.669 119.832 75.1764 119.83 76.3468 119.478C77.1324 119.241 88.87 113.353 102.43 106.394C115.99 99.4344 130.519 91.9825 134.716 89.834C140.981 86.6268 142.483 85.725 143.102 84.7964C144.398 82.8553 143.544 81.334 140.086 79.4229C139.013 78.8302 124.826 71.5074 108.558 63.15C92.2909 54.7926 78.842 47.8207 78.6723 47.657C77.5185 47.0404 74.1057 46.5521 71.1643 47.6628ZM1.06153 90.9455C2.38419e-07 91.8952 0 91.8952 0 133.175C0 174.455 -5.96046e-08 174.455 0.871392 176.317C1.3508 177.341 2.39284 178.811 3.1872 179.585C4.98101 181.331 6.05619 181.908 38.353 198.474C52.8328 205.902 65.3044 212.433 66.0675 212.989C67.2097 213.821 67.7626 214 69.1962 214C70.9381 214 70.938 214 71.6281 212.394C72.3181 210.787 72.3181 210.787 72.3181 169.472C72.3181 146.749 72.2232 127.683 72.1075 127.103C71.9918 126.523 71.436 125.589 70.8727 125.028C70.2214 124.379 58.5539 118.18 38.8246 107.999C4.87635 90.4814 3.90745 89.9964 2.84917 89.9961C2.44971 89.9958 1.64528 90.4231 1.06153 90.9455ZM135.45 95.6102C88.6633 119.543 79.9165 124.099 78.9746 125.028C78.4052 125.589 77.8448 126.523 77.7291 127.103C77.6134 127.683 77.5185 146.749 77.5185 169.472C77.5185 210.787 77.5185 210.787 78.2085 212.394C78.8986 214 78.8986 214 80.7691 214C82.0546 214 82.769 213.844 83.0537 213.5C83.6365 212.797 84.2049 212.497 115.709 196.3C131.261 188.304 144.656 181.269 145.475 180.668C146.294 180.066 147.431 178.868 148.001 178.006C150.104 174.826 149.999 177.198 149.999 133.045C149.999 89.8116 150.065 91.5532 148.392 90.6565C146.95 89.8838 145.738 90.3476 135.45 95.6102Z" fill="white"/>
<path d="M299.28 79.4V97.16H263.92V185H241.84V97.16H206.32V79.4H299.28Z" fill="white"/>
<path d="M298.214 185V105H317.254L318.694 120.68C320.827 115.133 323.92 110.867 327.974 107.88C332.134 104.893 337.307 103.4 343.494 103.4C345.307 103.4 346.96 103.56 348.454 103.88C349.947 104.2 351.174 104.627 352.134 105.16L349.574 123.56C348.507 123.133 347.174 122.813 345.574 122.6C344.08 122.387 342.107 122.28 339.654 122.28C336.454 122.28 333.36 123.08 330.374 124.68C327.387 126.173 324.934 128.52 323.014 131.72C321.094 134.813 320.134 138.76 320.134 143.56V185H298.214Z" fill="white"/>
<path d="M403.508 133.96C403.508 129.373 402.174 125.8 399.508 123.24C396.948 120.68 393.534 119.4 389.267 119.4C385.321 119.4 381.854 120.413 378.867 122.44C375.881 124.467 373.694 127.827 372.307 132.52L353.587 126.76C355.401 119.72 359.347 114.067 365.427 109.8C371.614 105.533 379.881 103.4 390.228 103.4C397.268 103.4 403.401 104.52 408.628 106.76C413.854 108.893 417.908 112.147 420.788 116.52C423.774 120.893 425.268 126.387 425.268 133V165.48C425.268 169.533 427.187 171.56 431.027 171.56C432.841 171.56 434.547 171.293 436.147 170.76L434.867 184.36C432.094 185.747 428.627 186.44 424.467 186.44C420.734 186.44 417.374 185.8 414.388 184.52C411.401 183.24 409.054 181.32 407.348 178.76C405.641 176.093 404.788 172.787 404.788 168.84V168.2L408.628 167.56C407.988 171.613 406.228 175.08 403.348 177.96C400.468 180.733 396.948 182.867 392.788 184.36C388.734 185.853 384.521 186.6 380.147 186.6C374.707 186.6 370.014 185.8 366.068 184.2C362.121 182.493 359.081 180.04 356.948 176.84C354.814 173.64 353.747 169.693 353.747 165C353.747 159.027 355.668 154.173 359.508 150.44C363.348 146.6 368.841 143.987 375.987 142.6L406.068 136.52L405.908 150.12L386.707 153.96C383.081 154.707 380.308 155.72 378.388 157C376.574 158.173 375.668 160.147 375.668 162.92C375.668 165.587 376.627 167.613 378.547 169C380.574 170.387 382.974 171.08 385.747 171.08C387.987 171.08 390.174 170.813 392.307 170.28C394.441 169.747 396.361 168.893 398.068 167.72C399.774 166.547 401.108 164.947 402.068 162.92C403.028 160.893 403.508 158.44 403.508 155.56V133.96Z" fill="white"/>
<path d="M443.383 185V105H463.062L464.342 129L461.622 126.44C462.902 121.213 464.929 116.893 467.703 113.48C470.476 110.067 473.836 107.56 477.783 105.96C481.836 104.253 486.263 103.4 491.062 103.4C496.609 103.4 501.516 104.467 505.783 106.6C510.156 108.733 513.569 111.987 516.023 116.36C518.583 120.627 519.862 126.013 519.862 132.52V185H497.943V138.76C497.943 131.933 496.609 127.24 493.943 124.68C491.276 122.013 487.809 120.68 483.543 120.68C480.556 120.68 477.622 121.427 474.742 122.92C471.969 124.307 469.676 126.6 467.863 129.8C466.156 133 465.302 137.267 465.302 142.6V185H443.383Z" fill="white"/>
<path d="M568.045 186.6C559.938 186.6 552.525 185.16 545.805 182.28C539.192 179.4 533.805 175.347 529.645 170.12L542.285 157.32C544.845 161.16 548.258 164.307 552.525 166.76C556.792 169.213 561.858 170.44 567.725 170.44C571.885 170.44 575.192 169.853 577.645 168.68C580.205 167.4 581.485 165.427 581.485 162.76C581.485 161.053 580.898 159.613 579.725 158.44C578.552 157.16 576.205 156.147 572.685 155.4L558.605 152.52C549.325 150.6 542.712 147.72 538.765 143.88C534.925 139.933 533.005 134.867 533.005 128.68C533.005 124.307 534.285 120.2 536.845 116.36C539.512 112.52 543.458 109.427 548.685 107.08C553.912 104.627 560.418 103.4 568.205 103.4C576.205 103.4 583.138 104.68 589.005 107.24C594.978 109.693 599.672 113.373 603.085 118.28L589.965 131.08C587.618 127.347 584.525 124.52 580.685 122.6C576.952 120.573 573.005 119.56 568.845 119.56C565.858 119.56 563.298 119.88 561.165 120.52C559.032 121.16 557.432 122.067 556.365 123.24C555.298 124.307 554.765 125.693 554.765 127.4C554.765 129.107 555.512 130.6 557.005 131.88C558.498 133.053 561.218 134.067 565.165 134.92L581.485 138.28C589.378 139.88 595.032 142.6 598.445 146.44C601.858 150.173 603.565 154.707 603.565 160.04C603.565 165.16 602.178 169.747 599.405 173.8C596.738 177.747 592.738 180.893 587.405 183.24C582.178 185.48 575.725 186.6 568.045 186.6Z" fill="white"/>
<path d="M660.245 133.96C660.245 129.373 658.912 125.8 656.245 123.24C653.685 120.68 650.272 119.4 646.005 119.4C642.058 119.4 638.592 120.413 635.605 122.44C632.618 124.467 630.432 127.827 629.045 132.52L610.325 126.76C612.138 119.72 616.085 114.067 622.165 109.8C628.352 105.533 636.618 103.4 646.965 103.4C654.005 103.4 660.138 104.52 665.365 106.76C670.592 108.893 674.645 112.147 677.525 116.52C680.512 120.893 682.005 126.387 682.005 133V165.48C682.005 169.533 683.925 171.56 687.765 171.56C689.578 171.56 691.285 171.293 692.885 170.76L691.605 184.36C688.832 185.747 685.365 186.44 681.205 186.44C677.472 186.44 674.112 185.8 671.125 184.52C668.138 183.24 665.792 181.32 664.085 178.76C662.378 176.093 661.525 172.787 661.525 168.84V168.2L665.365 167.56C664.725 171.613 662.965 175.08 660.085 177.96C657.205 180.733 653.685 182.867 649.525 184.36C645.472 185.853 641.258 186.6 636.885 186.6C631.445 186.6 626.752 185.8 622.805 184.2C618.858 182.493 615.818 180.04 613.685 176.84C611.552 173.64 610.485 169.693 610.485 165C610.485 159.027 612.405 154.173 616.245 150.44C620.085 146.6 625.578 143.987 632.725 142.6L662.805 136.52L662.645 150.12L643.445 153.96C639.818 154.707 637.045 155.72 635.125 157C633.312 158.173 632.405 160.147 632.405 162.92C632.405 165.587 633.365 167.613 635.285 169C637.312 170.387 639.712 171.08 642.485 171.08C644.725 171.08 646.912 170.813 649.045 170.28C651.178 169.747 653.098 168.893 654.805 167.72C656.512 166.547 657.845 164.947 658.805 162.92C659.765 160.893 660.245 158.44 660.245 155.56V133.96Z" fill="white"/>
<path d="M736.128 103.4C743.274 103.4 749.301 104.467 754.208 106.6C759.221 108.627 763.221 111.453 766.208 115.08C769.301 118.6 771.488 122.547 772.768 126.92L752.288 134.28C751.221 129.48 749.408 125.853 746.848 123.4C744.288 120.947 740.821 119.72 736.448 119.72C732.394 119.72 728.927 120.68 726.047 122.6C723.167 124.413 720.981 127.24 719.487 131.08C717.994 134.813 717.247 139.507 717.247 145.16C717.247 150.813 717.994 155.507 719.487 159.24C721.087 162.973 723.328 165.747 726.208 167.56C729.194 169.373 732.661 170.28 736.607 170.28C739.807 170.28 742.528 169.747 744.768 168.68C747.008 167.507 748.821 165.853 750.208 163.72C751.701 161.587 752.714 159.027 753.247 156.04L773.088 162.44C771.914 167.24 769.728 171.453 766.528 175.08C763.328 178.707 759.221 181.533 754.208 183.56C749.194 185.587 743.381 186.6 736.768 186.6C728.554 186.6 721.301 184.947 715.008 181.64C708.714 178.333 703.861 173.587 700.448 167.4C697.034 161.213 695.328 153.747 695.328 145C695.328 136.253 697.034 128.787 700.448 122.6C703.861 116.413 708.661 111.667 714.848 108.36C721.034 105.053 728.128 103.4 736.128 103.4Z" fill="white"/>
<path d="M812.04 80.52V158.92C812.04 162.76 813 165.587 814.92 167.4C816.947 169.107 819.667 169.96 823.08 169.96C825.747 169.96 828.093 169.587 830.12 168.84C832.147 167.987 833.96 166.867 835.56 165.48L839.08 180.04C836.52 182.067 833.32 183.667 829.48 184.84C825.64 186.013 821.587 186.6 817.32 186.6C811.987 186.6 807.24 185.8 803.08 184.2C799.027 182.6 795.827 180.04 793.48 176.52C791.24 173 790.12 168.307 790.12 162.44V86.6L812.04 80.52ZM837.64 105V121.32H775.4V105H837.64Z" fill="white"/>
<path d="M857.11 93.48C852.523 93.48 849.11 92.52 846.87 90.6C844.63 88.5733 843.51 85.64 843.51 81.8C843.51 77.8533 844.63 74.92 846.87 73C849.11 70.9733 852.523 69.96 857.11 69.96C861.697 69.96 865.11 70.9733 867.35 73C869.59 74.92 870.71 77.8533 870.71 81.8C870.71 85.64 869.59 88.5733 867.35 90.6C865.11 92.52 861.697 93.48 857.11 93.48ZM867.99 105V185H846.07V105H867.99Z" fill="white"/>
<path d="M921.306 103.4C929.413 103.4 936.506 105.053 942.586 108.36C948.773 111.667 953.573 116.413 956.986 122.6C960.506 128.787 962.266 136.253 962.266 145C962.266 153.64 960.506 161.107 956.986 167.4C953.573 173.587 948.773 178.333 942.586 181.64C936.506 184.947 929.413 186.6 921.306 186.6C913.306 186.6 906.213 184.947 900.026 181.64C893.84 178.333 888.986 173.587 885.466 167.4C882.053 161.107 880.346 153.64 880.346 145C880.346 136.253 882.053 128.787 885.466 122.6C888.986 116.413 893.84 111.667 900.026 108.36C906.213 105.053 913.306 103.4 921.306 103.4ZM921.306 119.72C917.253 119.72 913.786 120.68 910.906 122.6C908.133 124.413 906 127.187 904.506 130.92C903.013 134.653 902.266 139.347 902.266 145C902.266 150.653 903.013 155.347 904.506 159.08C906 162.813 908.133 165.64 910.906 167.56C913.786 169.373 917.253 170.28 921.306 170.28C925.253 170.28 928.613 169.373 931.386 167.56C934.266 165.64 936.453 162.813 937.946 159.08C939.44 155.347 940.186 150.653 940.186 145C940.186 139.347 939.44 134.653 937.946 130.92C936.453 127.187 934.266 124.413 931.386 122.6C928.613 120.68 925.253 119.72 921.306 119.72Z" fill="white"/>
<path d="M974.208 185V105H993.888L995.167 129L992.448 126.44C993.728 121.213 995.754 116.893 998.528 113.48C1001.3 110.067 1004.66 107.56 1008.61 105.96C1012.66 104.253 1017.09 103.4 1021.89 103.4C1027.43 103.4 1032.34 104.467 1036.61 106.6C1040.98 108.733 1044.39 111.987 1046.85 116.36C1049.41 120.627 1050.69 126.013 1050.69 132.52V185H1028.77V138.76C1028.77 131.933 1027.43 127.24 1024.77 124.68C1022.1 122.013 1018.63 120.68 1014.37 120.68C1011.38 120.68 1008.45 121.427 1005.57 122.92C1002.79 124.307 1000.5 126.6 998.688 129.8C996.981 133 996.128 137.267 996.128 142.6V185H974.208Z" fill="white"/>
<path d="M1112.47 133.96C1112.47 129.373 1111.14 125.8 1108.47 123.24C1105.91 120.68 1102.5 119.4 1098.23 119.4C1094.28 119.4 1090.82 120.413 1087.83 122.44C1084.84 124.467 1082.66 127.827 1081.27 132.52L1062.55 126.76C1064.36 119.72 1068.31 114.067 1074.39 109.8C1080.58 105.533 1088.84 103.4 1099.19 103.4C1106.23 103.4 1112.36 104.52 1117.59 106.76C1122.82 108.893 1126.87 112.147 1129.75 116.52C1132.74 120.893 1134.23 126.387 1134.23 133V165.48C1134.23 169.533 1136.15 171.56 1139.99 171.56C1141.8 171.56 1143.51 171.293 1145.11 170.76L1143.83 184.36C1141.06 185.747 1137.59 186.44 1133.43 186.44C1129.7 186.44 1126.34 185.8 1123.35 184.52C1120.36 183.24 1118.02 181.32 1116.31 178.76C1114.6 176.093 1113.75 172.787 1113.75 168.84V168.2L1117.59 167.56C1116.95 171.613 1115.19 175.08 1112.31 177.96C1109.43 180.733 1105.91 182.867 1101.75 184.36C1097.7 185.853 1093.48 186.6 1089.11 186.6C1083.67 186.6 1078.98 185.8 1075.03 184.2C1071.08 182.493 1068.04 180.04 1065.91 176.84C1063.78 173.64 1062.71 169.693 1062.71 165C1062.71 159.027 1064.63 154.173 1068.47 150.44C1072.31 146.6 1077.8 143.987 1084.95 142.6L1115.03 136.52L1114.87 150.12L1095.67 153.96C1092.04 154.707 1089.27 155.72 1087.35 157C1085.54 158.173 1084.63 160.147 1084.63 162.92C1084.63 165.587 1085.59 167.613 1087.51 169C1089.54 170.387 1091.94 171.08 1094.71 171.08C1096.95 171.08 1099.14 170.813 1101.27 170.28C1103.4 169.747 1105.32 168.893 1107.03 167.72C1108.74 166.547 1110.07 164.947 1111.03 162.92C1111.99 160.893 1112.47 158.44 1112.47 155.56V133.96Z" fill="white"/>
<path d="M1173.95 69.96V160.36C1173.95 164.093 1174.58 166.707 1175.86 168.2C1177.14 169.693 1179.28 170.44 1182.27 170.44C1184.08 170.44 1185.57 170.333 1186.74 170.12C1187.92 169.8 1189.41 169.373 1191.22 168.84L1189.31 183.24C1187.49 184.307 1185.2 185.107 1182.43 185.64C1179.76 186.28 1177.09 186.6 1174.43 186.6C1166.64 186.6 1160.93 184.733 1157.31 181C1153.79 177.16 1152.03 171.08 1152.03 162.76V69.96H1173.95Z" fill="white"/>
</g>
<defs>
<clipPath id="clip0_135_19">
<rect width="1191" height="261" fill="white"/>
</clipPath>
</defs>
</svg>
