<svg width="1192" height="167" viewBox="0 0 1192 167" fill="none" xmlns="http://www.w3.org/2000/svg">
<path fill-rule="evenodd" clip-rule="evenodd" d="M71.1643 0.662831C70.9946 0.829797 57.5457 7.80267 41.2782 16.1581C25.0107 24.514 10.706 31.9311 9.49009 32.6413C6.81188 34.2045 5.98859 35.507 6.65684 37.1223C6.88631 37.6769 7.45673 38.4011 7.92476 38.7318C9.47839 39.8293 72.1302 72.0645 73.5369 72.4899C74.669 72.8323 75.1764 72.8304 76.3468 72.4775C77.1324 72.2406 88.87 66.3529 102.43 59.3936C115.99 52.4344 130.519 44.9825 134.716 42.834C140.981 39.6268 142.483 38.725 143.102 37.7964C144.398 35.8553 143.544 34.334 140.086 32.4229C139.013 31.8302 124.826 24.5074 108.558 16.15C92.2909 7.79258 78.842 0.820684 78.6723 0.656972C77.5185 0.0403697 74.1057 -0.447855 71.1643 0.662831ZM1.06153 43.9455C2.38419e-07 44.8952 0 44.8952 0 86.1753C0 127.455 -5.96046e-08 127.455 0.871392 129.317C1.3508 130.341 2.39284 131.811 3.1872 132.585C4.98101 134.331 6.05619 134.908 38.353 151.474C52.8328 158.902 65.3044 165.433 66.0675 165.989C67.2097 166.821 67.7626 167 69.1962 167C70.9381 167 70.938 167 71.6281 165.394C72.3181 163.787 72.3181 163.787 72.3181 122.472C72.3181 99.7491 72.2232 80.6827 72.1075 80.1027C71.9918 79.523 71.436 78.5892 70.8727 78.0278C70.2214 77.3788 58.5539 71.1796 38.8246 60.9989C4.87635 43.4814 3.90745 42.9964 2.84917 42.9961C2.44971 42.9958 1.64528 43.4231 1.06153 43.9455ZM135.45 48.6102C88.6633 72.543 79.9165 77.0989 78.9746 78.0278C78.4052 78.5892 77.8448 79.523 77.7291 80.1027C77.6134 80.6827 77.5185 99.7491 77.5185 122.472C77.5185 163.787 77.5185 163.787 78.2085 165.394C78.8986 167 78.8986 167 80.7691 167C82.0546 167 82.769 166.844 83.0537 166.5C83.6365 165.797 84.2049 165.497 115.709 149.3C131.261 141.304 144.656 134.269 145.475 133.668C146.294 133.066 147.431 131.868 148.001 131.006C150.104 127.826 149.999 130.198 149.999 86.0455C149.999 42.8116 150.065 44.5532 148.392 43.6565C146.95 42.8838 145.738 43.3476 135.45 48.6102Z" fill="black"/>
<path d="M299.28 32.4V50.16H263.92V138H241.84V50.16H206.32V32.4H299.28Z" fill="black"/>
<path d="M298.214 138V58H317.254L318.694 73.68C320.827 68.1333 323.92 63.8667 327.974 60.88C332.134 57.8933 337.307 56.4 343.494 56.4C345.307 56.4 346.96 56.56 348.454 56.88C349.947 57.2 351.174 57.6267 352.134 58.16L349.574 76.56C348.507 76.1333 347.174 75.8133 345.574 75.6C344.08 75.3867 342.107 75.28 339.654 75.28C336.454 75.28 333.36 76.08 330.374 77.68C327.387 79.1733 324.934 81.52 323.014 84.72C321.094 87.8133 320.134 91.76 320.134 96.56V138H298.214Z" fill="black"/>
<path d="M403.508 86.96C403.508 82.3733 402.174 78.8 399.508 76.24C396.948 73.68 393.534 72.4 389.267 72.4C385.321 72.4 381.854 73.4133 378.867 75.44C375.881 77.4667 373.694 80.8267 372.307 85.52L353.587 79.76C355.401 72.72 359.347 67.0667 365.427 62.8C371.614 58.5333 379.881 56.4 390.228 56.4C397.268 56.4 403.401 57.52 408.628 59.76C413.854 61.8933 417.908 65.1467 420.788 69.52C423.774 73.8933 425.268 79.3867 425.268 86V118.48C425.268 122.533 427.187 124.56 431.027 124.56C432.841 124.56 434.547 124.293 436.147 123.76L434.867 137.36C432.094 138.747 428.627 139.44 424.467 139.44C420.734 139.44 417.374 138.8 414.388 137.52C411.401 136.24 409.054 134.32 407.348 131.76C405.641 129.093 404.788 125.787 404.788 121.84V121.2L408.628 120.56C407.988 124.613 406.228 128.08 403.348 130.96C400.468 133.733 396.948 135.867 392.788 137.36C388.734 138.853 384.521 139.6 380.147 139.6C374.707 139.6 370.014 138.8 366.068 137.2C362.121 135.493 359.081 133.04 356.948 129.84C354.814 126.64 353.747 122.693 353.747 118C353.747 112.027 355.668 107.173 359.508 103.44C363.348 99.6 368.841 96.9867 375.987 95.6L406.068 89.52L405.908 103.12L386.707 106.96C383.081 107.707 380.308 108.72 378.388 110C376.574 111.173 375.668 113.147 375.668 115.92C375.668 118.587 376.627 120.613 378.547 122C380.574 123.387 382.974 124.08 385.747 124.08C387.987 124.08 390.174 123.813 392.307 123.28C394.441 122.747 396.361 121.893 398.068 120.72C399.774 119.547 401.108 117.947 402.068 115.92C403.028 113.893 403.508 111.44 403.508 108.56V86.96Z" fill="black"/>
<path d="M443.383 138V58H463.062L464.342 82L461.622 79.44C462.902 74.2133 464.929 69.8933 467.703 66.48C470.476 63.0667 473.836 60.56 477.783 58.96C481.836 57.2533 486.263 56.4 491.062 56.4C496.609 56.4 501.516 57.4667 505.783 59.6C510.156 61.7333 513.569 64.9867 516.023 69.36C518.583 73.6267 519.862 79.0133 519.862 85.52V138H497.943V91.76C497.943 84.9333 496.609 80.24 493.943 77.68C491.276 75.0133 487.809 73.68 483.543 73.68C480.556 73.68 477.622 74.4267 474.742 75.92C471.969 77.3067 469.676 79.6 467.863 82.8C466.156 86 465.302 90.2667 465.302 95.6V138H443.383Z" fill="black"/>
<path d="M568.045 139.6C559.938 139.6 552.525 138.16 545.805 135.28C539.192 132.4 533.805 128.347 529.645 123.12L542.285 110.32C544.845 114.16 548.258 117.307 552.525 119.76C556.792 122.213 561.858 123.44 567.725 123.44C571.885 123.44 575.192 122.853 577.645 121.68C580.205 120.4 581.485 118.427 581.485 115.76C581.485 114.053 580.898 112.613 579.725 111.44C578.552 110.16 576.205 109.147 572.685 108.4L558.605 105.52C549.325 103.6 542.712 100.72 538.765 96.88C534.925 92.9333 533.005 87.8667 533.005 81.68C533.005 77.3067 534.285 73.2 536.845 69.36C539.512 65.52 543.458 62.4267 548.685 60.08C553.912 57.6267 560.418 56.4 568.205 56.4C576.205 56.4 583.138 57.68 589.005 60.24C594.978 62.6933 599.672 66.3733 603.085 71.28L589.965 84.08C587.618 80.3467 584.525 77.52 580.685 75.6C576.952 73.5733 573.005 72.56 568.845 72.56C565.858 72.56 563.298 72.88 561.165 73.52C559.032 74.16 557.432 75.0667 556.365 76.24C555.298 77.3067 554.765 78.6933 554.765 80.4C554.765 82.1067 555.512 83.6 557.005 84.88C558.498 86.0533 561.218 87.0667 565.165 87.92L581.485 91.28C589.378 92.88 595.032 95.6 598.445 99.44C601.858 103.173 603.565 107.707 603.565 113.04C603.565 118.16 602.178 122.747 599.405 126.8C596.738 130.747 592.738 133.893 587.405 136.24C582.178 138.48 575.725 139.6 568.045 139.6Z" fill="black"/>
<path d="M660.245 86.96C660.245 82.3733 658.912 78.8 656.245 76.24C653.685 73.68 650.272 72.4 646.005 72.4C642.058 72.4 638.592 73.4133 635.605 75.44C632.618 77.4667 630.432 80.8267 629.045 85.52L610.325 79.76C612.138 72.72 616.085 67.0667 622.165 62.8C628.352 58.5333 636.618 56.4 646.965 56.4C654.005 56.4 660.138 57.52 665.365 59.76C670.592 61.8933 674.645 65.1467 677.525 69.52C680.512 73.8933 682.005 79.3867 682.005 86V118.48C682.005 122.533 683.925 124.56 687.765 124.56C689.578 124.56 691.285 124.293 692.885 123.76L691.605 137.36C688.832 138.747 685.365 139.44 681.205 139.44C677.472 139.44 674.112 138.8 671.125 137.52C668.138 136.24 665.792 134.32 664.085 131.76C662.378 129.093 661.525 125.787 661.525 121.84V121.2L665.365 120.56C664.725 124.613 662.965 128.08 660.085 130.96C657.205 133.733 653.685 135.867 649.525 137.36C645.472 138.853 641.258 139.6 636.885 139.6C631.445 139.6 626.752 138.8 622.805 137.2C618.858 135.493 615.818 133.04 613.685 129.84C611.552 126.64 610.485 122.693 610.485 118C610.485 112.027 612.405 107.173 616.245 103.44C620.085 99.6 625.578 96.9867 632.725 95.6L662.805 89.52L662.645 103.12L643.445 106.96C639.818 107.707 637.045 108.72 635.125 110C633.312 111.173 632.405 113.147 632.405 115.92C632.405 118.587 633.365 120.613 635.285 122C637.312 123.387 639.712 124.08 642.485 124.08C644.725 124.08 646.912 123.813 649.045 123.28C651.178 122.747 653.098 121.893 654.805 120.72C656.512 119.547 657.845 117.947 658.805 115.92C659.765 113.893 660.245 111.44 660.245 108.56V86.96Z" fill="black"/>
<path d="M736.128 56.4C743.274 56.4 749.301 57.4667 754.208 59.6C759.221 61.6267 763.221 64.4533 766.208 68.08C769.301 71.6 771.488 75.5467 772.768 79.92L752.288 87.28C751.221 82.48 749.408 78.8533 746.848 76.4C744.288 73.9467 740.821 72.72 736.448 72.72C732.394 72.72 728.927 73.68 726.047 75.6C723.167 77.4133 720.981 80.24 719.487 84.08C717.994 87.8133 717.247 92.5067 717.247 98.16C717.247 103.813 717.994 108.507 719.487 112.24C721.087 115.973 723.328 118.747 726.208 120.56C729.194 122.373 732.661 123.28 736.607 123.28C739.807 123.28 742.528 122.747 744.768 121.68C747.008 120.507 748.821 118.853 750.208 116.72C751.701 114.587 752.714 112.027 753.247 109.04L773.088 115.44C771.914 120.24 769.728 124.453 766.528 128.08C763.328 131.707 759.221 134.533 754.208 136.56C749.194 138.587 743.381 139.6 736.768 139.6C728.554 139.6 721.301 137.947 715.008 134.64C708.714 131.333 703.861 126.587 700.448 120.4C697.034 114.213 695.328 106.747 695.328 98C695.328 89.2533 697.034 81.7867 700.448 75.6C703.861 69.4133 708.661 64.6667 714.848 61.36C721.034 58.0533 728.128 56.4 736.128 56.4Z" fill="black"/>
<path d="M812.04 33.52V111.92C812.04 115.76 813 118.587 814.92 120.4C816.947 122.107 819.667 122.96 823.08 122.96C825.747 122.96 828.093 122.587 830.12 121.84C832.147 120.987 833.96 119.867 835.56 118.48L839.08 133.04C836.52 135.067 833.32 136.667 829.48 137.84C825.64 139.013 821.587 139.6 817.32 139.6C811.987 139.6 807.24 138.8 803.08 137.2C799.027 135.6 795.827 133.04 793.48 129.52C791.24 126 790.12 121.307 790.12 115.44V39.6L812.04 33.52ZM837.64 58V74.32H775.4V58H837.64Z" fill="black"/>
<path d="M857.11 46.48C852.523 46.48 849.11 45.52 846.87 43.6C844.63 41.5733 843.51 38.64 843.51 34.8C843.51 30.8533 844.63 27.92 846.87 26C849.11 23.9733 852.523 22.96 857.11 22.96C861.697 22.96 865.11 23.9733 867.35 26C869.59 27.92 870.71 30.8533 870.71 34.8C870.71 38.64 869.59 41.5733 867.35 43.6C865.11 45.52 861.697 46.48 857.11 46.48ZM867.99 58V138H846.07V58H867.99Z" fill="black"/>
<path d="M921.306 56.4C929.413 56.4 936.506 58.0533 942.586 61.36C948.773 64.6667 953.573 69.4133 956.986 75.6C960.506 81.7867 962.266 89.2533 962.266 98C962.266 106.64 960.506 114.107 956.986 120.4C953.573 126.587 948.773 131.333 942.586 134.64C936.506 137.947 929.413 139.6 921.306 139.6C913.306 139.6 906.213 137.947 900.026 134.64C893.84 131.333 888.986 126.587 885.466 120.4C882.053 114.107 880.346 106.64 880.346 98C880.346 89.2533 882.053 81.7867 885.466 75.6C888.986 69.4133 893.84 64.6667 900.026 61.36C906.213 58.0533 913.306 56.4 921.306 56.4ZM921.306 72.72C917.253 72.72 913.786 73.68 910.906 75.6C908.133 77.4133 906 80.1867 904.506 83.92C903.013 87.6533 902.266 92.3467 902.266 98C902.266 103.653 903.013 108.347 904.506 112.08C906 115.813 908.133 118.64 910.906 120.56C913.786 122.373 917.253 123.28 921.306 123.28C925.253 123.28 928.613 122.373 931.386 120.56C934.266 118.64 936.453 115.813 937.946 112.08C939.44 108.347 940.186 103.653 940.186 98C940.186 92.3467 939.44 87.6533 937.946 83.92C936.453 80.1867 934.266 77.4133 931.386 75.6C928.613 73.68 925.253 72.72 921.306 72.72Z" fill="black"/>
<path d="M974.208 138V58H993.888L995.167 82L992.448 79.44C993.728 74.2133 995.754 69.8933 998.528 66.48C1001.3 63.0667 1004.66 60.56 1008.61 58.96C1012.66 57.2533 1017.09 56.4 1021.89 56.4C1027.43 56.4 1032.34 57.4667 1036.61 59.6C1040.98 61.7333 1044.39 64.9867 1046.85 69.36C1049.41 73.6267 1050.69 79.0133 1050.69 85.52V138H1028.77V91.76C1028.77 84.9333 1027.43 80.24 1024.77 77.68C1022.1 75.0133 1018.63 73.68 1014.37 73.68C1011.38 73.68 1008.45 74.4267 1005.57 75.92C1002.79 77.3067 1000.5 79.6 998.688 82.8C996.981 86 996.128 90.2667 996.128 95.6V138H974.208Z" fill="black"/>
<path d="M1112.47 86.96C1112.47 82.3733 1111.14 78.8 1108.47 76.24C1105.91 73.68 1102.5 72.4 1098.23 72.4C1094.28 72.4 1090.82 73.4133 1087.83 75.44C1084.84 77.4667 1082.66 80.8267 1081.27 85.52L1062.55 79.76C1064.36 72.72 1068.31 67.0667 1074.39 62.8C1080.58 58.5333 1088.84 56.4 1099.19 56.4C1106.23 56.4 1112.36 57.52 1117.59 59.76C1122.82 61.8933 1126.87 65.1467 1129.75 69.52C1132.74 73.8933 1134.23 79.3867 1134.23 86V118.48C1134.23 122.533 1136.15 124.56 1139.99 124.56C1141.8 124.56 1143.51 124.293 1145.11 123.76L1143.83 137.36C1141.06 138.747 1137.59 139.44 1133.43 139.44C1129.7 139.44 1126.34 138.8 1123.35 137.52C1120.36 136.24 1118.02 134.32 1116.31 131.76C1114.6 129.093 1113.75 125.787 1113.75 121.84V121.2L1117.59 120.56C1116.95 124.613 1115.19 128.08 1112.31 130.96C1109.43 133.733 1105.91 135.867 1101.75 137.36C1097.7 138.853 1093.48 139.6 1089.11 139.6C1083.67 139.6 1078.98 138.8 1075.03 137.2C1071.08 135.493 1068.04 133.04 1065.91 129.84C1063.78 126.64 1062.71 122.693 1062.71 118C1062.71 112.027 1064.63 107.173 1068.47 103.44C1072.31 99.6 1077.8 96.9867 1084.95 95.6L1115.03 89.52L1114.87 103.12L1095.67 106.96C1092.04 107.707 1089.27 108.72 1087.35 110C1085.54 111.173 1084.63 113.147 1084.63 115.92C1084.63 118.587 1085.59 120.613 1087.51 122C1089.54 123.387 1091.94 124.08 1094.71 124.08C1096.95 124.08 1099.14 123.813 1101.27 123.28C1103.4 122.747 1105.32 121.893 1107.03 120.72C1108.74 119.547 1110.07 117.947 1111.03 115.92C1111.99 113.893 1112.47 111.44 1112.47 108.56V86.96Z" fill="black"/>
<path d="M1173.95 22.96V113.36C1173.95 117.093 1174.58 119.707 1175.86 121.2C1177.14 122.693 1179.28 123.44 1182.27 123.44C1184.08 123.44 1185.57 123.333 1186.74 123.12C1187.92 122.8 1189.41 122.373 1191.22 121.84L1189.31 136.24C1187.49 137.307 1185.2 138.107 1182.43 138.64C1179.76 139.28 1177.09 139.6 1174.43 139.6C1166.64 139.6 1160.93 137.733 1157.31 134C1153.79 130.16 1152.03 124.08 1152.03 115.76V22.96H1173.95Z" fill="black"/>
</svg>
