<svg width="1140" height="418" viewBox="0 0 1140 418" fill="none" xmlns="http://www.w3.org/2000/svg">
<rect width="1140" height="418" rx="32" fill="black"/>
<path fill-rule="evenodd" clip-rule="evenodd" d="M341.065 172.29C340.991 172.363 335.12 175.411 328.019 179.063C320.918 182.716 314.673 185.958 314.143 186.268C312.974 186.952 312.614 187.521 312.906 188.227C313.006 188.47 313.255 188.786 313.459 188.931C314.138 189.41 341.487 203.501 342.101 203.687C342.595 203.837 342.816 203.836 343.327 203.682C343.67 203.578 348.794 201.005 354.713 197.962C360.633 194.92 366.975 191.663 368.807 190.724C371.542 189.322 372.197 188.928 372.468 188.522C373.034 187.673 372.661 187.008 371.151 186.173C370.683 185.914 364.49 182.713 357.389 179.06C350.287 175.406 344.417 172.359 344.342 172.287C343.839 172.018 342.349 171.804 341.065 172.29ZM310.463 191.21C310 191.625 310 191.625 310 209.669C310 227.714 310 227.714 310.38 228.528C310.59 228.976 311.045 229.618 311.391 229.956C312.174 230.719 312.644 230.972 326.742 238.213C333.063 241.46 338.507 244.315 338.84 244.558C339.339 244.922 339.58 245 340.206 245C340.966 245 340.966 245 341.267 244.298C341.569 243.596 341.569 243.596 341.569 225.536C341.569 215.603 341.527 207.268 341.477 207.015C341.426 206.762 341.184 206.353 340.938 206.108C340.653 205.824 335.56 203.114 326.948 198.664C312.129 191.007 311.706 190.795 311.244 190.795C311.069 190.795 310.718 190.981 310.463 191.21ZM369.128 193.249C348.704 203.71 344.886 205.702 344.474 206.108C344.226 206.353 343.981 206.762 343.931 207.015C343.88 207.268 343.839 215.603 343.839 225.536C343.839 243.596 343.839 243.596 344.14 244.298C344.441 245 344.441 245 345.258 245C345.819 245 346.131 244.932 346.255 244.781C346.509 244.474 346.758 244.343 360.51 237.263C367.299 233.768 373.146 230.693 373.504 230.43C373.861 230.167 374.357 229.643 374.606 229.266C375.524 227.876 375.478 228.913 375.478 209.613C375.478 190.714 375.507 191.475 374.777 191.083C374.148 190.746 373.618 190.948 369.128 193.249Z" fill="white"/>
<path d="M440.643 186.163V193.926H425.208V232.323H415.569V193.926H400.064V186.163H440.643Z" fill="white"/>
<path d="M440.178 232.323V197.353H448.489L449.118 204.207C450.049 201.783 451.4 199.918 453.169 198.612C454.985 197.307 457.243 196.654 459.944 196.654C460.735 196.654 461.457 196.724 462.109 196.864C462.761 197.004 463.296 197.19 463.715 197.423L462.598 205.466C462.132 205.28 461.55 205.14 460.852 205.047C460.2 204.953 459.338 204.907 458.267 204.907C456.871 204.907 455.52 205.257 454.217 205.956C452.913 206.609 451.842 207.634 451.004 209.033C450.166 210.385 449.747 212.111 449.747 214.209V232.323H440.178Z" fill="white"/>
<path d="M486.141 210.012C486.141 208.008 485.559 206.446 484.395 205.326C483.278 204.207 481.788 203.648 479.925 203.648C478.202 203.648 476.689 204.091 475.385 204.977C474.082 205.863 473.127 207.331 472.522 209.383L464.35 206.865C465.142 203.788 466.864 201.317 469.518 199.451C472.219 197.586 475.828 196.654 480.344 196.654C483.417 196.654 486.095 197.143 488.376 198.123C490.658 199.055 492.427 200.477 493.684 202.389C494.988 204.301 495.64 206.702 495.64 209.593V223.791C495.64 225.562 496.478 226.448 498.154 226.448C498.946 226.448 499.691 226.332 500.389 226.099L499.831 232.044C498.62 232.65 497.107 232.953 495.291 232.953C493.661 232.953 492.194 232.673 490.891 232.114C489.587 231.554 488.563 230.715 487.818 229.596C487.073 228.43 486.7 226.985 486.7 225.259V224.98L488.376 224.7C488.097 226.472 487.329 227.987 486.071 229.246C484.814 230.458 483.278 231.391 481.462 232.044C479.692 232.696 477.853 233.023 475.944 233.023C473.569 233.023 471.521 232.673 469.798 231.974C468.075 231.228 466.748 230.155 465.817 228.756C464.885 227.358 464.42 225.632 464.42 223.581C464.42 220.97 465.258 218.848 466.934 217.216C468.61 215.538 471.008 214.395 474.128 213.789L487.259 211.131L487.189 217.076L478.808 218.755C477.225 219.081 476.014 219.524 475.176 220.084C474.384 220.597 473.988 221.459 473.988 222.672C473.988 223.837 474.407 224.723 475.246 225.329C476.13 225.935 477.178 226.239 478.389 226.239C479.366 226.239 480.321 226.122 481.252 225.889C482.183 225.656 483.022 225.283 483.767 224.77C484.512 224.257 485.094 223.558 485.513 222.672C485.932 221.786 486.141 220.713 486.141 219.454V210.012Z" fill="white"/>
<path d="M503.548 232.323V197.353H512.139L512.697 207.844L511.51 206.725C512.069 204.441 512.953 202.552 514.164 201.06C515.375 199.568 516.841 198.472 518.564 197.773C520.334 197.027 522.266 196.654 524.361 196.654C526.783 196.654 528.924 197.12 530.787 198.053C532.696 198.985 534.186 200.407 535.257 202.319C536.374 204.184 536.933 206.539 536.933 209.383V232.323H527.365V212.111C527.365 209.127 526.783 207.075 525.618 205.956C524.454 204.79 522.941 204.207 521.079 204.207C519.775 204.207 518.494 204.534 517.237 205.187C516.027 205.793 515.025 206.795 514.234 208.194C513.489 209.593 513.116 211.458 513.116 213.789V232.323H503.548Z" fill="white"/>
<path d="M557.966 233.023C554.427 233.023 551.191 232.393 548.258 231.134C545.371 229.875 543.019 228.104 541.204 225.819L546.721 220.224C547.839 221.902 549.329 223.278 551.191 224.35C553.054 225.423 555.265 225.959 557.826 225.959C559.642 225.959 561.086 225.702 562.157 225.189C563.274 224.63 563.833 223.767 563.833 222.602C563.833 221.856 563.577 221.226 563.065 220.713C562.553 220.154 561.528 219.711 559.992 219.384L553.845 218.126C549.794 217.286 546.907 216.027 545.185 214.349C543.508 212.624 542.67 210.409 542.67 207.704C542.67 205.793 543.229 203.998 544.346 202.319C545.511 200.64 547.233 199.288 549.515 198.263C551.797 197.19 554.637 196.654 558.036 196.654C561.528 196.654 564.555 197.213 567.116 198.332C569.723 199.405 571.772 201.013 573.262 203.158L567.535 208.754C566.51 207.122 565.16 205.886 563.484 205.047C561.854 204.161 560.131 203.718 558.315 203.718C557.012 203.718 555.894 203.858 554.963 204.137C554.032 204.417 553.333 204.814 552.867 205.326C552.402 205.793 552.169 206.399 552.169 207.145C552.169 207.891 552.495 208.544 553.147 209.103C553.799 209.616 554.986 210.059 556.709 210.432L563.833 211.901C567.279 212.6 569.746 213.789 571.236 215.468C572.726 217.1 573.471 219.081 573.471 221.413C573.471 223.651 572.866 225.656 571.656 227.428C570.491 229.153 568.745 230.528 566.417 231.554C564.136 232.533 561.319 233.023 557.966 233.023Z" fill="white"/>
<path d="M598.214 210.012C598.214 208.008 597.632 206.446 596.468 205.326C595.35 204.207 593.86 203.648 591.998 203.648C590.275 203.648 588.761 204.091 587.458 204.977C586.154 205.863 585.199 207.331 584.594 209.383L576.422 206.865C577.214 203.788 578.937 201.317 581.591 199.451C584.291 197.586 587.9 196.654 592.417 196.654C595.49 196.654 598.167 197.143 600.449 198.123C602.73 199.055 604.5 200.477 605.757 202.389C607.061 204.301 607.713 206.702 607.713 209.593V223.791C607.713 225.562 608.551 226.448 610.227 226.448C611.018 226.448 611.763 226.332 612.462 226.099L611.903 232.044C610.693 232.65 609.179 232.953 607.363 232.953C605.734 232.953 604.267 232.673 602.963 232.114C601.659 231.554 600.635 230.715 599.89 229.596C599.145 228.43 598.772 226.985 598.772 225.259V224.98L600.449 224.7C600.169 226.472 599.401 227.987 598.144 229.246C596.887 230.458 595.35 231.391 593.534 232.044C591.765 232.696 589.926 233.023 588.017 233.023C585.642 233.023 583.593 232.673 581.87 231.974C580.147 231.228 578.82 230.155 577.889 228.756C576.958 227.358 576.492 225.632 576.492 223.581C576.492 220.97 577.33 218.848 579.007 217.216C580.683 215.538 583.081 214.395 586.201 213.789L599.331 211.131L599.261 217.076L590.88 218.755C589.297 219.081 588.086 219.524 587.248 220.084C586.457 220.597 586.061 221.459 586.061 222.672C586.061 223.837 586.48 224.723 587.318 225.329C588.203 225.935 589.25 226.239 590.461 226.239C591.439 226.239 592.393 226.122 593.325 225.889C594.256 225.656 595.094 225.283 595.839 224.77C596.584 224.257 597.166 223.558 597.585 222.672C598.004 221.786 598.214 220.713 598.214 219.454V210.012Z" fill="white"/>
<path d="M631.338 196.654C634.458 196.654 637.089 197.12 639.231 198.053C641.419 198.939 643.165 200.174 644.469 201.76C645.819 203.298 646.774 205.023 647.333 206.935L638.393 210.152C637.927 208.054 637.135 206.469 636.018 205.396C634.9 204.324 633.387 203.788 631.478 203.788C629.709 203.788 628.195 204.207 626.938 205.047C625.681 205.839 624.726 207.075 624.075 208.754C623.423 210.385 623.097 212.437 623.097 214.908C623.097 217.379 623.423 219.431 624.075 221.063C624.773 222.695 625.751 223.907 627.008 224.7C628.312 225.493 629.825 225.889 631.548 225.889C632.945 225.889 634.132 225.656 635.11 225.189C636.088 224.677 636.879 223.954 637.485 223.021C638.137 222.089 638.579 220.97 638.812 219.664L647.472 222.462C646.96 224.56 646.006 226.402 644.609 227.987C643.212 229.572 641.419 230.808 639.231 231.694C637.042 232.58 634.505 233.023 631.618 233.023C628.032 233.023 624.866 232.3 622.119 230.855C619.372 229.409 617.253 227.334 615.763 224.63C614.273 221.926 613.528 218.662 613.528 214.838C613.528 211.015 614.273 207.751 615.763 205.047C617.253 202.342 619.348 200.267 622.049 198.822C624.75 197.377 627.846 196.654 631.338 196.654Z" fill="white"/>
<path d="M664.476 186.652V220.923C664.476 222.602 664.895 223.837 665.733 224.63C666.618 225.376 667.805 225.749 669.295 225.749C670.459 225.749 671.484 225.586 672.368 225.259C673.253 224.886 674.045 224.397 674.743 223.791L676.28 230.155C675.162 231.041 673.765 231.741 672.089 232.253C670.413 232.766 668.643 233.023 666.781 233.023C664.453 233.023 662.381 232.673 660.565 231.974C658.795 231.274 657.399 230.155 656.374 228.617C655.396 227.078 654.907 225.026 654.907 222.462V189.31L664.476 186.652ZM675.651 197.353V204.487H648.482V197.353H675.651Z" fill="white"/>
<path d="M684.15 192.318C682.148 192.318 680.658 191.898 679.68 191.059C678.702 190.173 678.214 188.891 678.214 187.212C678.214 185.487 678.702 184.205 679.68 183.365C680.658 182.479 682.148 182.036 684.15 182.036C686.153 182.036 687.643 182.479 688.62 183.365C689.598 184.205 690.087 185.487 690.087 187.212C690.087 188.891 689.598 190.173 688.62 191.059C687.643 191.898 686.153 192.318 684.15 192.318ZM688.9 197.353V232.323H679.331V197.353H688.9Z" fill="white"/>
<path d="M712.174 196.654C715.712 196.654 718.809 197.377 721.463 198.822C724.164 200.267 726.259 202.342 727.749 205.047C729.285 207.751 730.054 211.015 730.054 214.838C730.054 218.615 729.285 221.879 727.749 224.63C726.259 227.334 724.164 229.409 721.463 230.855C718.809 232.3 715.712 233.023 712.174 233.023C708.681 233.023 705.585 232.3 702.884 230.855C700.184 229.409 698.065 227.334 696.529 224.63C695.039 221.879 694.294 218.615 694.294 214.838C694.294 211.015 695.039 207.751 696.529 205.047C698.065 202.342 700.184 200.267 702.884 198.822C705.585 197.377 708.681 196.654 712.174 196.654ZM712.174 203.788C710.404 203.788 708.891 204.207 707.634 205.047C706.423 205.839 705.492 207.052 704.84 208.684C704.188 210.316 703.862 212.367 703.862 214.838C703.862 217.31 704.188 219.361 704.84 220.993C705.492 222.625 706.423 223.861 707.634 224.7C708.891 225.493 710.404 225.889 712.174 225.889C713.896 225.889 715.363 225.493 716.574 224.7C717.831 223.861 718.786 222.625 719.437 220.993C720.089 219.361 720.415 217.31 720.415 214.838C720.415 212.367 720.089 210.316 719.437 208.684C718.786 207.052 717.831 205.839 716.574 205.047C715.363 204.207 713.896 203.788 712.174 203.788Z" fill="white"/>
<path d="M735.266 232.323V197.353H743.857L744.416 207.844L743.229 206.725C743.787 204.441 744.672 202.552 745.883 201.06C747.093 199.568 748.56 198.472 750.283 197.773C752.052 197.027 753.985 196.654 756.08 196.654C758.501 196.654 760.643 197.12 762.506 198.053C764.415 198.985 765.905 200.407 766.976 202.319C768.093 204.184 768.652 206.539 768.652 209.383V232.323H759.083V212.111C759.083 209.127 758.501 207.075 757.337 205.956C756.173 204.79 754.66 204.207 752.797 204.207C751.493 204.207 750.213 204.534 748.956 205.187C747.745 205.793 746.744 206.795 745.952 208.194C745.207 209.593 744.835 211.458 744.835 213.789V232.323H735.266Z" fill="white"/>
<path d="M795.621 210.012C795.621 208.008 795.039 206.446 793.875 205.326C792.758 204.207 791.268 203.648 789.405 203.648C787.682 203.648 786.169 204.091 784.865 204.977C783.562 205.863 782.607 207.331 782.002 209.383L773.83 206.865C774.622 203.788 776.344 201.317 778.999 199.451C781.699 197.586 785.308 196.654 789.824 196.654C792.898 196.654 795.575 197.143 797.856 198.123C800.138 199.055 801.907 200.477 803.165 202.389C804.468 204.301 805.12 206.702 805.12 209.593V223.791C805.12 225.562 805.958 226.448 807.635 226.448C808.426 226.448 809.171 226.332 809.87 226.099L809.311 232.044C808.1 232.65 806.587 232.953 804.771 232.953C803.141 232.953 801.675 232.673 800.371 232.114C799.067 231.554 798.043 230.715 797.298 229.596C796.553 228.43 796.18 226.985 796.18 225.259V224.98L797.856 224.7C797.577 226.472 796.809 227.987 795.552 229.246C794.294 230.458 792.758 231.391 790.942 232.044C789.173 232.696 787.333 233.023 785.424 233.023C783.05 233.023 781.001 232.673 779.278 231.974C777.555 231.228 776.228 230.155 775.297 228.756C774.366 227.358 773.9 225.632 773.9 223.581C773.9 220.97 774.738 218.848 776.414 217.216C778.091 215.538 780.489 214.395 783.608 213.789L796.739 211.131L796.669 217.076L788.288 218.755C786.705 219.081 785.494 219.524 784.656 220.084C783.864 220.597 783.469 221.459 783.469 222.672C783.469 223.837 783.888 224.723 784.726 225.329C785.61 225.935 786.658 226.239 787.869 226.239C788.847 226.239 789.801 226.122 790.732 225.889C791.664 225.656 792.502 225.283 793.247 224.77C793.992 224.257 794.574 223.558 794.993 222.672C795.412 221.786 795.621 220.713 795.621 219.454V210.012Z" fill="white"/>
<path d="M822.457 182.036V221.553C822.457 223.185 822.736 224.327 823.295 224.98C823.854 225.632 824.785 225.959 826.089 225.959C826.88 225.959 827.532 225.912 828.044 225.819C828.557 225.679 829.208 225.493 830 225.259L829.162 231.554C828.37 232.02 827.369 232.37 826.159 232.603C824.995 232.883 823.83 233.023 822.666 233.023C819.267 233.023 816.776 232.207 815.193 230.575C813.657 228.896 812.888 226.239 812.888 222.602V182.036H822.457Z" fill="white"/>
</svg>
