<svg width="1140" height="505" viewBox="0 0 1140 505" fill="none" xmlns="http://www.w3.org/2000/svg">
<rect width="1140" height="505" rx="32" fill="black"/>
<path fill-rule="evenodd" clip-rule="evenodd" d="M271.342 206.365C271.248 206.457 263.813 210.298 254.82 214.901C245.827 219.505 237.919 223.591 237.246 223.982C235.766 224.843 235.311 225.561 235.68 226.451C235.807 226.756 236.122 227.155 236.381 227.337C237.24 227.942 271.876 245.7 272.653 245.935C273.279 246.123 273.56 246.122 274.207 245.928C274.641 245.797 281.13 242.554 288.626 238.72C296.123 234.886 304.155 230.781 306.475 229.597C309.938 227.83 310.768 227.334 311.111 226.822C311.827 225.753 311.355 224.915 309.443 223.862C308.85 223.535 301.007 219.501 292.014 214.897C283.021 210.293 275.586 206.452 275.492 206.362C274.854 206.022 272.968 205.753 271.342 206.365ZM232.587 230.21C232 230.733 232 230.733 232 253.474C232 276.215 232 276.215 232.482 277.241C232.747 277.805 233.323 278.615 233.762 279.041C234.754 280.002 235.348 280.321 253.203 289.447C261.208 293.539 268.102 297.137 268.524 297.443C269.155 297.902 269.461 298 270.254 298C271.217 298 271.217 298 271.598 297.115C271.98 296.23 271.98 296.23 271.98 273.47C271.98 260.952 271.927 250.448 271.863 250.128C271.799 249.809 271.492 249.295 271.18 248.985C270.82 248.628 264.37 245.213 253.463 239.604C234.696 229.954 234.16 229.687 233.575 229.686C233.354 229.686 232.91 229.922 232.587 230.21ZM306.881 232.779C281.016 245.964 276.18 248.474 275.659 248.985C275.345 249.295 275.035 249.809 274.971 250.128C274.907 250.448 274.854 260.952 274.854 273.47C274.854 296.23 274.854 296.23 275.236 297.115C275.617 298 275.617 298 276.651 298C277.362 298 277.757 297.914 277.914 297.725C278.237 297.337 278.551 297.172 295.967 288.249C304.565 283.844 311.97 279.969 312.423 279.637C312.875 279.306 313.504 278.646 313.819 278.171C314.982 276.419 314.924 277.726 314.924 253.402C314.924 229.585 314.96 230.544 314.035 230.05C313.238 229.625 312.568 229.88 306.881 232.779Z" fill="white"/>
<path d="M409.792 223.397V230.989H391.051V277.863H382.178V230.989H363.437V223.397H409.792Z" fill="white"/>
<path d="M413.586 277.863V236.601H421.132L421.961 244.028C423.067 241.332 424.698 239.297 426.854 237.921C429.065 236.491 431.774 235.776 434.981 235.776C435.81 235.776 436.639 235.858 437.468 236.023C438.297 236.133 438.989 236.326 439.541 236.601L438.297 244.358C437.689 244.138 436.998 243.973 436.224 243.863C435.506 243.698 434.511 243.615 433.239 243.615C431.525 243.615 429.839 244.083 428.181 245.018C426.522 245.899 425.14 247.246 424.035 249.062C422.984 250.877 422.459 253.188 422.459 255.994V277.863H413.586Z" fill="white"/>
<path d="M470.996 251.373C470.996 248.622 470.222 246.504 468.674 245.018C467.182 243.478 465.109 242.708 462.455 242.708C459.967 242.708 457.839 243.285 456.07 244.441C454.301 245.596 453.002 247.466 452.172 250.052L444.709 246.916C445.76 243.56 447.805 240.865 450.846 238.829C453.941 236.793 457.922 235.776 462.787 235.776C466.104 235.776 469.034 236.326 471.577 237.426C474.12 238.471 476.11 240.067 477.547 242.212C479.04 244.358 479.786 247.109 479.786 250.465V268.868C479.786 270.903 480.809 271.921 482.854 271.921C483.849 271.921 484.817 271.783 485.757 271.508L485.259 277.615C483.988 278.22 482.384 278.523 480.45 278.523C478.681 278.523 477.077 278.22 475.64 277.615C474.258 276.955 473.152 275.992 472.323 274.727C471.549 273.406 471.162 271.783 471.162 269.858V269.28L472.986 269.198C472.489 271.343 471.466 273.131 469.918 274.562C468.37 275.937 466.574 276.982 464.528 277.698C462.483 278.358 460.41 278.688 458.309 278.688C455.71 278.688 453.361 278.275 451.26 277.45C449.215 276.625 447.584 275.387 446.368 273.736C445.207 272.031 444.626 269.94 444.626 267.465C444.626 264.384 445.621 261.853 447.612 259.873C449.657 257.892 452.532 256.544 456.236 255.829L472.323 252.693L472.24 258.882L460.548 261.275C458.226 261.716 456.484 262.348 455.324 263.173C454.163 263.999 453.582 265.209 453.582 266.804C453.582 268.345 454.163 269.583 455.324 270.518C456.54 271.398 458.143 271.838 460.133 271.838C461.515 271.838 462.842 271.673 464.113 271.343C465.44 271.013 466.629 270.491 467.679 269.775C468.73 269.005 469.531 268.042 470.084 266.887C470.692 265.677 470.996 264.246 470.996 262.596V251.373Z" fill="white"/>
<path d="M494.324 277.863V236.601H502.202L502.782 247.329L501.621 246.174C502.395 243.808 503.501 241.855 504.938 240.314C506.431 238.719 508.172 237.564 510.162 236.848C512.208 236.133 514.364 235.776 516.63 235.776C519.56 235.776 522.186 236.353 524.508 237.509C526.885 238.609 528.765 240.287 530.147 242.543C531.529 244.798 532.22 247.659 532.22 251.125V277.863H523.347V253.848C523.347 249.777 522.49 246.971 520.777 245.431C519.118 243.835 517.017 243.038 514.474 243.038C512.65 243.038 510.881 243.478 509.167 244.358C507.454 245.183 506.016 246.531 504.855 248.402C503.75 250.272 503.197 252.775 503.197 255.911V277.863H494.324Z" fill="white"/>
<path d="M561.421 278.688C557.275 278.688 553.488 277.89 550.061 276.295C546.633 274.699 543.924 272.444 541.934 269.528L548.07 264.246C549.287 266.502 551.028 268.317 553.295 269.693C555.617 271.013 558.381 271.673 561.587 271.673C564.13 271.673 566.148 271.233 567.641 270.353C569.133 269.473 569.88 268.235 569.88 266.639C569.88 265.594 569.52 264.686 568.802 263.916C568.138 263.091 566.839 262.458 564.904 262.018L556.197 260.203C551.774 259.322 548.623 257.919 546.744 255.994C544.864 254.013 543.924 251.51 543.924 248.484C543.924 246.229 544.588 244.138 545.914 242.212C547.241 240.287 549.176 238.746 551.719 237.591C554.317 236.381 557.413 235.776 561.007 235.776C565.153 235.776 568.691 236.518 571.621 238.004C574.551 239.434 576.79 241.497 578.338 244.193L572.201 249.309C571.151 247.109 569.603 245.486 567.558 244.441C565.512 243.34 563.384 242.79 561.172 242.79C559.403 242.79 557.883 243.01 556.612 243.45C555.34 243.89 554.373 244.496 553.709 245.266C553.046 246.036 552.714 246.944 552.714 247.989C552.714 249.089 553.129 250.052 553.958 250.877C554.787 251.703 556.28 252.335 558.436 252.775L567.889 254.756C571.87 255.526 574.661 256.847 576.265 258.717C577.923 260.533 578.752 262.761 578.752 265.402C578.752 268.042 578.061 270.381 576.679 272.416C575.297 274.397 573.307 275.937 570.709 277.037C568.11 278.138 565.015 278.688 561.421 278.688Z" fill="white"/>
<path d="M613.522 251.373C613.522 248.622 612.748 246.504 611.2 245.018C609.708 243.478 607.635 242.708 604.981 242.708C602.493 242.708 600.365 243.285 598.596 244.441C596.827 245.596 595.528 247.466 594.698 250.052L587.235 246.916C588.286 243.56 590.331 240.865 593.372 238.829C596.468 236.793 600.448 235.776 605.313 235.776C608.63 235.776 611.56 236.326 614.103 237.426C616.646 238.471 618.636 240.067 620.073 242.212C621.566 244.358 622.312 247.109 622.312 250.465V268.868C622.312 270.903 623.335 271.921 625.38 271.921C626.376 271.921 627.343 271.783 628.283 271.508L627.785 277.615C626.514 278.22 624.911 278.523 622.976 278.523C621.207 278.523 619.603 278.22 618.166 277.615C616.784 276.955 615.678 275.992 614.849 274.727C614.075 273.406 613.688 271.783 613.688 269.858V269.28L615.512 269.198C615.015 271.343 613.992 273.131 612.444 274.562C610.896 275.937 609.1 276.982 607.054 277.698C605.009 278.358 602.936 278.688 600.835 278.688C598.237 278.688 595.887 278.275 593.786 277.45C591.741 276.625 590.11 275.387 588.894 273.736C587.733 272.031 587.152 269.94 587.152 267.465C587.152 264.384 588.147 261.853 590.138 259.873C592.183 257.892 595.058 256.544 598.762 255.829L614.849 252.693L614.766 258.882L603.074 261.275C600.752 261.716 599.011 262.348 597.85 263.173C596.689 263.999 596.108 265.209 596.108 266.804C596.108 268.345 596.689 269.583 597.85 270.518C599.066 271.398 600.669 271.838 602.659 271.838C604.041 271.838 605.368 271.673 606.64 271.343C607.966 271.013 609.155 270.491 610.205 269.775C611.256 269.005 612.057 268.042 612.61 266.887C613.218 265.677 613.522 264.246 613.522 262.596V251.373Z" fill="white"/>
<path d="M654.681 235.776C657.998 235.776 660.817 236.271 663.139 237.261C665.516 238.196 667.506 239.544 669.109 241.305C670.713 243.065 671.929 245.073 672.758 247.329L664.383 250.63C663.664 248.099 662.503 246.174 660.9 244.853C659.352 243.478 657.307 242.79 654.763 242.79C652.276 242.79 650.147 243.368 648.378 244.523C646.609 245.623 645.255 247.246 644.315 249.392C643.431 251.538 642.988 254.178 642.988 257.314C642.988 260.395 643.458 263.008 644.398 265.154C645.338 267.3 646.692 268.923 648.461 270.023C650.23 271.123 652.331 271.673 654.763 271.673C656.643 271.673 658.274 271.371 659.656 270.766C661.038 270.105 662.171 269.198 663.056 268.042C663.996 266.832 664.631 265.374 664.963 263.669L673.007 266.392C672.233 268.868 671.017 271.041 669.358 272.911C667.755 274.727 665.737 276.157 663.305 277.202C660.872 278.193 658.081 278.688 654.929 278.688C650.838 278.688 647.217 277.835 644.066 276.13C640.915 274.424 638.455 271.976 636.686 268.785C634.972 265.539 634.115 261.688 634.115 257.232C634.115 252.775 634.972 248.952 636.686 245.761C638.455 242.515 640.888 240.039 643.983 238.334C647.134 236.628 650.7 235.776 654.681 235.776Z" fill="white"/>
<path d="M695.44 224.47V265.484C695.44 267.52 695.965 269.005 697.015 269.94C698.121 270.876 699.586 271.343 701.41 271.343C702.903 271.343 704.202 271.123 705.308 270.683C706.413 270.188 707.436 269.528 708.376 268.703L710.366 275.139C709.095 276.24 707.519 277.12 705.639 277.78C703.815 278.385 701.77 278.688 699.503 278.688C697.126 278.688 694.942 278.303 692.952 277.533C690.962 276.762 689.414 275.524 688.308 273.819C687.203 272.058 686.622 269.775 686.567 266.97V226.946L695.44 224.47ZM709.703 236.601V243.533H678.606V236.601H709.703Z" fill="white"/>
<path d="M722.956 229.669C721.022 229.669 719.529 229.201 718.479 228.266C717.483 227.276 716.986 225.9 716.986 224.14C716.986 222.379 717.483 221.031 718.479 220.096C719.529 219.161 721.022 218.693 722.956 218.693C724.836 218.693 726.273 219.161 727.268 220.096C728.319 221.031 728.844 222.379 728.844 224.14C728.844 225.9 728.319 227.276 727.268 228.266C726.273 229.201 724.836 229.669 722.956 229.669ZM727.351 236.601V277.863H718.479V236.601H727.351Z" fill="white"/>
<path d="M759.229 235.776C763.264 235.776 766.83 236.628 769.926 238.334C773.022 240.039 775.427 242.515 777.14 245.761C778.909 248.952 779.794 252.775 779.794 257.232C779.794 261.688 778.909 265.539 777.14 268.785C775.427 271.976 773.022 274.424 769.926 276.13C766.83 277.835 763.264 278.688 759.229 278.688C755.193 278.688 751.627 277.835 748.531 276.13C745.436 274.424 743.003 271.976 741.234 268.785C739.465 265.539 738.581 261.688 738.581 257.232C738.581 252.775 739.465 248.952 741.234 245.761C743.003 242.515 745.436 240.039 748.531 238.334C751.627 236.628 755.193 235.776 759.229 235.776ZM759.229 242.708C756.741 242.708 754.613 243.285 752.844 244.441C751.13 245.541 749.803 247.164 748.863 249.309C747.923 251.455 747.453 254.096 747.453 257.232C747.453 260.313 747.923 262.953 748.863 265.154C749.803 267.3 751.13 268.95 752.844 270.105C754.613 271.206 756.741 271.756 759.229 271.756C761.716 271.756 763.817 271.206 765.531 270.105C767.245 268.95 768.571 267.3 769.511 265.154C770.451 262.953 770.921 260.313 770.921 257.232C770.921 254.096 770.451 251.455 769.511 249.309C768.571 247.164 767.245 245.541 765.531 244.441C763.817 243.285 761.716 242.708 759.229 242.708Z" fill="white"/>
<path d="M790.956 277.863V236.601H798.834L799.415 247.329L798.254 246.174C799.028 243.808 800.133 241.855 801.571 240.314C803.063 238.719 804.805 237.564 806.795 236.848C808.84 236.133 810.996 235.776 813.263 235.776C816.193 235.776 818.819 236.353 821.141 237.509C823.518 238.609 825.397 240.287 826.78 242.543C828.162 244.798 828.853 247.659 828.853 251.125V277.863H819.98V253.848C819.98 249.777 819.123 246.971 817.409 245.431C815.751 243.835 813.65 243.038 811.107 243.038C809.283 243.038 807.513 243.478 805.8 244.358C804.086 245.183 802.649 246.531 801.488 248.402C800.382 250.272 799.829 252.775 799.829 255.911V277.863H790.956Z" fill="white"/>
<path d="M866.263 251.373C866.263 248.622 865.489 246.504 863.941 245.018C862.449 243.478 860.376 242.708 857.722 242.708C855.234 242.708 853.106 243.285 851.337 244.441C849.568 245.596 848.269 247.466 847.439 250.052L839.976 246.916C841.027 243.56 843.072 240.865 846.113 238.829C849.208 236.793 853.189 235.776 858.054 235.776C861.371 235.776 864.301 236.326 866.844 237.426C869.387 238.471 871.377 240.067 872.814 242.212C874.307 244.358 875.053 247.109 875.053 250.465V268.868C875.053 270.903 876.076 271.921 878.121 271.921C879.116 271.921 880.084 271.783 881.024 271.508L880.526 277.615C879.255 278.22 877.651 278.523 875.717 278.523C873.947 278.523 872.344 278.22 870.907 277.615C869.525 276.955 868.419 275.992 867.59 274.727C866.816 273.406 866.429 271.783 866.429 269.858V269.28L868.253 269.198C867.756 271.343 866.733 273.131 865.185 274.562C863.637 275.937 861.841 276.982 859.795 277.698C857.75 278.358 855.676 278.688 853.576 278.688C850.977 278.688 848.628 278.275 846.527 277.45C844.482 276.625 842.851 275.387 841.635 273.736C840.474 272.031 839.893 269.94 839.893 267.465C839.893 264.384 840.888 261.853 842.879 259.873C844.924 257.892 847.799 256.544 851.503 255.829L867.59 252.693L867.507 258.882L855.815 261.275C853.493 261.716 851.751 262.348 850.59 263.173C849.43 263.999 848.849 265.209 848.849 266.804C848.849 268.345 849.43 269.583 850.59 270.518C851.807 271.398 853.41 271.838 855.4 271.838C856.782 271.838 858.109 271.673 859.38 271.343C860.707 271.013 861.896 270.491 862.946 269.775C863.997 269.005 864.798 268.042 865.351 266.887C865.959 265.677 866.263 264.246 866.263 262.596V251.373Z" fill="white"/>
<path d="M898.215 218.033V266.309C898.215 268.345 898.574 269.748 899.293 270.518C900.012 271.288 901.2 271.673 902.859 271.673C903.854 271.673 904.683 271.618 905.346 271.508C906.065 271.343 906.95 271.068 908 270.683L907.005 277.285C906.065 277.725 904.987 278.055 903.771 278.275C902.555 278.55 901.338 278.688 900.122 278.688C896.418 278.688 893.682 277.753 891.913 275.882C890.199 273.957 889.342 271.013 889.342 267.052V218.033H898.215Z" fill="white"/>
</svg>
